# xmcd
#
# Track frame offsets: 
#        150
#        15037
#        36557
#        41785
#        74537
#        101170
#        104792
#        111390
#        116085
#        119477
#        144345
#        150425
#        165485
#        194892
#        227052
#        232412
#
# Disc length: 3431 seconds
#
# Revision: 1
# Processed by: cddbd v1.5.2PL0 Copyright (c) Steve Scherf et al.
# Submitted via: ExactAudioCopy v1.0b3
#
DISCID=ef0d6510
DTITLE=Steve Adams and Ken Filiano - In Out Side
DYEAR=1992
DGENRE=Jazz
TTITLE0=Unity
TTITLE1=Throb
TTITLE2=Verticality I
TTITLE3=Heartfelt Return
TTITLE4=Fliz-Mo-Blues
TTITLE5=Verticality II
TTITLE6=Haiku #6
TTITLE7=Haiku #7
TTITLE8=Haiku #13
TTITLE9=Enchantment
TTITLE10=Haiku #8
TTITLE11=Axis
TTITLE12=Myself See Three
TTITLE13=Tag
TTITLE14=Haiku #3
TTITLE15=Signal Buoys
EXTD=YEAR: 1992
EXTT0=
EXTT1=
EXTT2=
EXTT3=
EXTT4=
EXTT5=
EXTT6=
EXTT7=
EXTT8=
EXTT9=
EXTT10=
EXTT11=
EXTT12=
EXTT13=
EXTT14=
EXTT15=
PLAYORDER=
